<svg xmlns="http://www.w3.org/2000/svg" viewBox="0 0 16 16" shape-rendering="crispEdges"><rect width="16" height="16" rx="3" fill="#E0E7FF"/><rect x="5" y="3" width="7" height="1" fill="#0F172A"/><rect x="4" y="4" width="1" height="1" fill="#0F172A"/><rect x="5" y="4" width="7" height="1" fill="#1E1B3A"/><rect x="12" y="4" width="1" height="1" fill="#0F172A"/><rect x="3" y="5" width="1" height="1" fill="#0F172A"/><rect x="4" y="5" width="9" height="1" fill="#1E1B3A"/><rect x="13" y="5" width="1" height="1" fill="#0F172A"/><rect x="2" y="6" width="1" height="1" fill="#0F172A"/><rect x="3" y="6" width="3" height="1" fill="#1E1B3A"/><rect x="6" y="6" width="3" height="1" fill="#334155"/><rect x="9" y="6" width="4" height="1" fill="#F4C89A"/><rect x="13" y="6" width="1" height="1" fill="#0F172A"/><rect x="2" y="7" width="1" height="1" fill="#0F172A"/><rect x="3" y="7" width="3" height="1" fill="#1E1B3A"/><rect x="6" y="7" width="3" height="1" fill="#334155"/><rect x="9" y="7" width="1" height="1" fill="#F4C89A"/><rect x="10" y="7" width="1" height="1" fill="#0F172A"/><rect x="11" y="7" width="2" height="1" fill="#F4C89A"/><rect x="13" y="7" width="1" height="1" fill="#0F172A"/><rect x="2" y="8" width="1" height="1" fill="#0F172A"/><rect x="3" y="8" width="3" height="1" fill="#1E1B3A"/><rect x="6" y="8" width="3" height="1" fill="#334155"/><rect x="9" y="8" width="4" height="1" fill="#F4C89A"/><rect x="13" y="8" width="1" height="1" fill="#0F172A"/><rect x="2" y="9" width="1" height="1" fill="#0F172A"/><rect x="3" y="9" width="4" height="1" fill="#1E1B3A"/><rect x="7" y="9" width="2" height="1" fill="#334155"/><rect x="9" y="9" width="3" height="1" fill="#F4C89A"/><rect x="12" y="9" width="1" height="1" fill="#0F172A"/><rect x="2" y="10" width="1" height="1" fill="#0F172A"/><rect x="3" y="10" width="6" height="1" fill="#1E1B3A"/><rect x="9" y="10" width="2" height="1" fill="#F4C89A"/><rect x="11" y="10" width="1" height="1" fill="#0F172A"/><rect x="2" y="11" width="1" height="1" fill="#0F172A"/><rect x="3" y="11" width="4" height="1" fill="#1E1B3A"/><rect x="7" y="11" width="5" height="1" fill="#0F172A"/><rect x="2" y="12" width="1" height="1" fill="#0F172A"/><rect x="3" y="12" width="2" height="1" fill="#1E1B3A"/><rect x="5" y="12" width="1" height="1" fill="#0F172A"/><rect x="6" y="12" width="6" height="1" fill="#5B6EFF"/><rect x="12" y="12" width="1" height="1" fill="#0F172A"/><rect x="2" y="13" width="1" height="1" fill="#0F172A"/><rect x="3" y="13" width="2" height="1" fill="#1E1B3A"/><rect x="5" y="13" width="1" height="1" fill="#0F172A"/><rect x="6" y="13" width="7" height="1" fill="#5B6EFF"/><rect x="13" y="13" width="1" height="1" fill="#0F172A"/><rect x="3" y="14" width="1" height="1" fill="#0F172A"/><rect x="4" y="14" width="1" height="1" fill="#1E1B3A"/><rect x="5" y="14" width="1" height="1" fill="#0F172A"/><rect x="6" y="14" width="8" height="1" fill="#5B6EFF"/><rect x="4" y="15" width="2" height="1" fill="#0F172A"/><rect x="6" y="15" width="8" height="1" fill="#5B6EFF"/></svg>